<?xml version="1.0" encoding="UTF-8" standalone="no"?>
<!-- Created with Inkscape (http://www.inkscape.org/) -->

<svg
   width="210mm"
   height="297mm"
   viewBox="0 0 210 297"
   version="1.1"
   id="svg1"
   xml:space="preserve"
   xmlns="http://www.w3.org/2000/svg"
   xmlns:svg="http://www.w3.org/2000/svg"><defs
     id="defs1"><linearGradient
       id="swatch13"><stop
         style="stop-color:#2d91ff;stop-opacity:1;"
         offset="0"
         id="stop14" /></linearGradient><linearGradient
       id="swatch7"><stop
         style="stop-color:#2d91ff;stop-opacity:0.63716802;"
         offset="0"
         id="stop7" /></linearGradient><rect
       x="974.94386"
       y="2296.7502"
       width="10.875868"
       height="25.24755"
       id="rect5" /><rect
       x="985.81973"
       y="2284.3207"
       width="197.31932"
       height="219.07105"
       id="rect4" /><clipPath
       clipPathUnits="userSpaceOnUse"
       id="clipPath19"><g
         id="use19"
         style="fill:#000000;fill-opacity:1" /></clipPath><clipPath
       clipPathUnits="userSpaceOnUse"
       id="clipPath19-4"><g
         id="use19-8" /></clipPath></defs><g
     id="layer1"><path
       id="path15-2"
       style="fill:#008bc2;fill-opacity:1;stroke-width:0.104553"
       d="m 83.573417,167.84778 c -10.301771,-0.0167 -19.740561,7.59822 -23.162356,14.09608 -3.421705,6.49771 -12.52249,24.60052 -18.667217,36.95508 l 11.74863,0.03 c 6.388911,-13.8857 9.176198,-18.95018 16.142518,-32.09193 2.62058,-3.8883 6.973677,-8.60226 15.038901,-8.82479 3.724364,-2e-5 7.801233,1.27651 10.822457,3.44892 l 1.329038,1.2131 1.407964,1.44732 c 9.282208,9.33966 22.139418,14.98681 35.969738,14.98681 16.63186,-3e-5 32.11769,-7.86817 41.13451,-20.59907 l -4.85784,-9.74334 c -1.535,1.5465 -2.9049,2.79195 -4.27053,4.15141 v 0.13828 h -0.1422 c -2.20838,2.19597 -4.36902,4.4269 -6.91523,6.72234 -16.49845,13.68859 -40.60595,11.36305 -54.30794,-3.94069 -0.21049,-0.19643 -0.5801,-0.5147 -0.5801,-0.5147 -5.628662,-4.82826 -11.183395,-7.45936 -20.690343,-7.47479 z" /><path
       id="path15-2-8"
       style="fill:#00a5c2;fill-opacity:1;stroke-width:0.104553"
       d="m 84.625325,146.36799 c -17.079823,0.007 -33.231672,8.56436 -42.021506,23.26302 l -24.432832,49.20801 11.396883,0.0227 c 0,0 17.744616,-35.21308 19.296287,-38.31328 4.385037,-10.00295 16.444146,-23.60128 35.4057,-23.64807 11.136398,0.0251 18.428703,3.18438 25.103813,8.52827 0,0 1.88051,1.62434 2.71643,2.54351 10.95057,12.0412 27.90516,13.36996 39.96372,3.36509 0.37185,-0.30857 0.73573,-0.6264 1.09127,-0.95321 l 12.24431,-11.82755 -4.78636,-9.60075 -14.14093,13.18675 -0.36937,0.3445 -0.009,-0.0101 c -3.35075,3.20585 -7.83861,5.00395 -12.51381,5.01375 -3.37435,4e-5 -6.57443,-1.00353 -9.43564,-2.76245 l -3.94441,-3.56349 -1.57776,-1.53409 c -9.01358,-8.32632 -21.127009,-13.22451 -33.871438,-13.26242 z m 81.583905,26.55133 c -0.0449,0.0447 -0.0954,0.0918 -0.14022,0.13631 h 0.14022 z m -7.05743,6.85866 c -2.06231,1.71106 -4.24357,3.17184 -6.50848,4.3884 2.26491,-1.21656 4.44617,-2.67734 6.50848,-4.3884 z" /><path
       id="path6-5"
       style="fill:#000000;fill-opacity:1;fill-rule:nonzero;stroke-width:0.100275"
       d="m 145.45052,235.57462 c -5.00637,0.0263 -10.56468,4.24974 -10.37024,10.95446 0.15688,5.40977 4.74436,10.01026 9.7664,10.28258 4.3823,0.23765 7.39061,-0.0292 7.39061,-0.0292 l 0.01,-4.89781 c 0,0 -4.32446,0.0641 -6.82576,0.0681 -0.78242,-0.17676 -2.69452,-0.13744 -4.27525,-2.51001 l 15.15025,0.003 c 1.18504,-9.03951 -4.43271,-13.90428 -10.84581,-13.87063 z m 0.19898,5.04802 c 5.22417,0.0821 5.7286,4.95755 5.7286,4.95755 l -11.23687,0.055 c 0,0 0.68527,-5.08839 5.50827,-5.01258 z" /><rect
       style="fill:#000000;fill-opacity:1;fill-rule:nonzero;stroke-width:0.141393"
       id="rect3-5"
       width="5.4393973"
       height="16.782095"
       x="73.629311"
       y="240.36841" /><path
       style="fill:#000000;fill-opacity:1;stroke-width:0.100275"
       d="m 20.083389,256.97658 15.36409,-30.28084 15.088382,30.17675 -6.054882,0.0977 -9.179987,-18.067 -9.179984,18.067 z"
       id="path1" /><path
       style="fill:#008bc2;fill-opacity:1;fill-rule:nonzero;stroke-width:0.100275"
       d="m 38.478913,226.47326 2.07743,-0.004 c 0,0 10.032762,20.35973 11.265363,22.62271 1.562551,2.86875 4.975452,5.95392 8.924494,5.96734 4.363917,0.0149 5.544265,-3.36603 5.603566,-5.10322 0.06615,-1.93781 -0.5744,-3.62037 -3.701659,-5.05433 -1.296172,-0.59434 -1.888938,-1.7565 -1.822331,-3.24311 0.06092,-1.35966 1.383997,-3.13253 3.477693,-3.12042 4.143325,0.0239 23.25548,0.0859 23.25548,0.0859 l 0.0061,1.72734 c 0,0 -19.786124,0.0373 -23.593533,0.007 -0.540371,-0.004 -1.357717,0.55158 -1.368825,1.41284 -0.01376,1.06523 0.631477,1.47468 1.670587,1.94889 1.843198,0.84115 3.914973,2.77632 3.920682,6.05119 0.0072,4.13371 -3.267553,7.01057 -7.381484,7.07179 -3.821878,0.0568 -7.159781,-2.2471 -8.723901,-4.13664 -1.305617,-1.57654 -1.710729,-2.5462 -3.610454,-6.08442 -1.903848,-3.54591 -9.999179,-20.14924 -9.999179,-20.14924 z"
       id="path2" /><path
       style="fill:#00a5c2;fill-opacity:1;fill-rule:nonzero;stroke-width:0.100275"
       d="m 42.649862,226.50435 2.0544,-0.004 c 0,0 7.689756,15.45175 10.524315,21.26498 1.125221,2.30765 3.329409,3.25834 5.143159,3.65246 2.519025,0.54736 3.453249,-2.21503 0.863864,-3.19183 -1.494984,-0.56397 -4.001169,-2.33151 -4.025144,-6.24501 -0.02206,-3.59947 2.556462,-6.89875 7.139948,-6.89404 8.178948,0.008 14.976254,0.0349 23.145628,0.004 l 0.01948,1.61638 c 0,0 -21.23011,0.0788 -23.197932,0.12089 -2.311504,0.0493 -5.358211,1.40242 -5.273938,5.13727 0.07812,3.46227 2.587894,4.47079 2.908602,4.60287 1.649893,0.67953 2.915064,1.98006 2.585594,3.83435 -0.401326,2.25875 -2.475254,2.92057 -3.82289,2.83995 -2.757645,-0.16497 -5.882555,-2.17505 -7.076205,-4.55175 -6.1216,-12.18887 -10.988266,-22.18781 -10.988266,-22.18781 z"
       id="path3" /><rect
       style="fill:#000000;fill-opacity:1;fill-rule:nonzero;stroke-width:0.101369"
       id="rect3"
       width="5.4393973"
       height="8.6257935"
       x="73.617165"
       y="226.47894" /><g
       id="g14"
       style="fill:#000000;fill-opacity:1"
       transform="matrix(0.37899222,0,0,0.37899222,-9.171777,7.601848)"><path
         id="path6"
         style="fill:#000000;fill-opacity:1;fill-rule:nonzero;stroke-width:0.264583"
         d="m 282.09676,601.73808 c -13.20966,0.0693 -27.87571,11.21327 -27.36267,28.90418 0.41395,14.2741 12.51836,26.41283 25.76941,27.13139 11.56303,0.62703 19.5007,-0.0772 19.5007,-0.0772 l 0.0258,-12.92324 c 0,0 -11.41042,0.16911 -18.01027,0.17983 -2.06449,-0.46642 -7.10969,-0.36267 -11.28059,-6.62285 l 39.97509,0.007 c 3.12683,-23.85146 -11.69604,-36.68753 -28.61747,-36.59873 z m 0.52504,13.3196 c 13.78436,0.21669 15.11535,13.08086 15.11535,13.08086 l -29.64935,0.14521 c 0,0 1.80812,-13.42612 14.534,-13.22607 z" /></g><path
       id="rect19"
       style="fill:#000000;fill-opacity:1;fill-rule:nonzero;stroke-width:0.100364;stroke-dasharray:none"
       d="m 120.94967,235.11733 a 9.3478104,9.3867603 0 0 0 -4.82966,1.34999 v -1.33217 h -5.40897 v 21.89423 h 5.40897 v -12.39514 a 5.3165672,5.4528892 0 0 1 5.16065,-4.14202 5.3165672,5.4528892 0 0 1 0.0632,3.8e-4 v -5.36687 a 9.3478104,9.3867603 0 0 0 -0.39426,-0.008 z" /><path
       id="rect1"
       style="fill:#000000;fill-opacity:1;stroke-width:0.0994902"
       d="m 117.32301,226.6544 v 5.36216 h 8.4378 v 24.8878 h 5.4597 v -24.8878 h 38.8115 v -5.36216 z" /><path
       id="path4"
       style="fill:#000000;fill-opacity:1;stroke-width:0.100433"
       d="m 169.03064,235.66818 c -5.98171,-6e-5 -10.83088,4.80939 -10.83086,10.74216 -2e-5,5.93277 4.84915,10.74222 10.83086,10.74216 1.31727,-10e-6 2.5795,-0.23331 3.74721,-0.6604 l -1.87567,-5.15359 c -0.57243,0.20629 -1.19095,0.31883 -1.83607,0.31883 -2.94685,8e-5 -5.33575,-2.34912 -5.33574,-5.247 -1e-5,-2.89788 2.38889,-5.24706 5.33574,-5.24701 0.69307,1e-5 1.35528,0.12996 1.9628,0.36643 l 2.23132,-5.01159 c -1.29945,-0.54724 -2.72886,-0.84998 -4.22959,-0.84999 z" /><path
       id="rect8"
       style="fill:#000000;fill-opacity:1;stroke-width:0.0998993"
       d="m 175.24183,226.59231 v 30.35983 h 5.35278 V 245.5533 a 5.2203491,4.8884072 0 0 1 5.1898,-4.36078 5.2203491,4.8884072 0 0 1 5.2047,4.51236 h 0.0399 v 11.29935 h 5.39921 v -11.31246 a 10.653452,9.5327468 0 0 0 0.007,-0.349 10.653452,9.5327468 0 0 0 -10.65343,-9.5326 10.653452,9.5327468 0 0 0 -5.18726,1.20644 v -10.4243 z m -0.0964,18.21382 a 10.653452,9.5327468 0 0 0 -0.017,0.53664 10.653452,9.5327468 0 0 0 0.008,0.36211 h 0.009 z" /><path
       id="rect12"
       style="fill:#000000;fill-opacity:1;stroke-width:0.334899"
       d="m 106.81646,41.306006 -0.002,0.0039 -2e-4,-1.95e-4 -64.232191,128.356729 c 0.02694,-0.0448 0.05397,-0.0896 0.08108,-0.13435 8.803015,-14.63832 24.920763,-23.15714 41.962357,-23.16451 l 0.115358,2e-4 c 1.652986,0.005 3.295333,0.0916 4.921699,0.25695 l 17.153687,-34.27876 27.58504,55.12384 c 4.37315,-0.20793 8.53065,-1.97791 11.68223,-4.99319 l 0.009,0.0101 0.36938,-0.34451 14.14073,-13.18635 z m 68.52133,137.202864 c -6.22817,8.79359 -15.54265,15.26715 -26.1894,18.43024 l 11.15814,22.29768 h 35.55005 z" /></g></svg>
